<svg width="29" height="28" viewBox="0 0 29 28" fill="none" xmlns="http://www.w3.org/2000/svg">
<path d="M25.8516 21L16.5183 4.66664C16.3148 4.30755 16.0197 4.00886 15.6631 3.80106C15.3064 3.59325 14.9011 3.48376 14.4883 3.48376C14.0756 3.48376 13.6702 3.59325 13.3136 3.80106C12.9569 4.00886 12.6618 4.30755 12.4583 4.66664L3.12498 21C2.91927 21.3562 2.81141 21.7605 2.81232 22.1719C2.81323 22.5833 2.92289 22.9871 3.13017 23.3424C3.33745 23.6978 3.63498 23.992 3.99262 24.1953C4.35026 24.3986 4.75529 24.5037 5.16665 24.5H23.8333C24.2427 24.4996 24.6448 24.3914 24.9991 24.1865C25.3535 23.9815 25.6477 23.6869 25.8522 23.3323C26.0568 22.9776 26.1644 22.5754 26.1643 22.166C26.1641 21.7567 26.0563 21.3545 25.8516 21Z" stroke="#00A5FF" stroke-width="2.33333" stroke-linecap="round" stroke-linejoin="round"/>
<path d="M14.5 10.5V15.1667" stroke="#00A5FF" stroke-width="2.33333" stroke-linecap="round" stroke-linejoin="round"/>
<path d="M14.5 19.8334H14.5117" stroke="#00A5FF" stroke-width="2.33333" stroke-linecap="round" stroke-linejoin="round"/>
</svg>
