<svg width="66" height="66" viewBox="0 0 66 66" fill="none" xmlns="http://www.w3.org/2000/svg">
<path d="M7.79315 46.7027C8.61114 46.9973 9.00122 46.8575 10.5961 46.8575C12.611 44.4267 14.3259 42.3125 16.3409 39.8818C15.5389 39.8959 14.7465 39.6126 14.015 39.2834C12.304 42.0385 10.1363 44.4605 7.79315 46.7027Z" fill="#1644EB"/>
<path d="M29.6615 41.1129C29.7427 40.3834 29.8239 39.654 29.9052 38.9246C29.8697 39.243 27.1401 39.8003 26.7896 39.8817C25.7303 40.1275 24.6541 40.2998 23.5712 40.3983C21.3603 40.5993 19.1208 40.4927 16.9404 40.0742C16.5581 40.0009 15.2604 39.4318 15.22 39.9925C15.189 40.4217 14.9542 40.6124 15.2473 40.7964C16.8466 41.8003 20.5802 42.3575 22.4131 42.3824C24.88 42.416 27.3555 41.9935 29.6615 41.1129Z" fill="#1644EB"/>
<path d="M40.2075 12.46C36.7917 8.32345 31.8697 6.27914 26.5437 5.63681C21.2177 4.99447 15.554 5.33935 11.0332 8.22754C17.3268 5.78331 24.5593 5.39446 30.7977 7.97645C37.036 10.5584 42.0613 16.3272 42.9629 23.0183C43.1823 24.6461 43.1423 26.3937 42.3086 27.8089C42.5929 27.3265 44.1236 27.6079 44.5177 27.1273C44.8235 26.7544 44.7096 25.4465 44.7209 24.9793C44.758 23.4496 44.6034 21.9163 44.2749 20.4222C43.6049 17.3749 42.195 14.8668 40.2075 12.46Z" fill="#1644EB"/>
<path d="M56.4454 60.531C56.8548 60.9163 55.7413 60.9652 54.4736 60.8425C54.3202 60.8276 53.6966 60.4745 52.9473 59.3624C52.1311 58.1513 50.4895 56.108 50.0163 54.8721C49.8982 54.5638 50.3952 54.711 50.3763 54.3814C50.3573 54.0519 51.0382 54.1063 51.29 53.8928C53.1563 56.1179 54.9379 58.0489 56.4454 60.531Z" fill="#1644EB"/>
<path d="M51.7657 55.8927C46.96 57.3158 42.4634 57.3755 38.1175 55.4669C33.7716 53.5583 30.3133 49.951 29.1946 45.3382C28.8177 43.7845 28.4261 42.0261 28.8615 40.4878C29.6993 45.0459 32.1799 49.5896 36.1021 52.0583C38.2635 53.4188 40.833 54.1708 43.3243 54.6541C45.8814 55.1502 48.8922 54.6657 51.3894 54.0297C51.3999 54.7808 51.5527 55.5297 51.8373 56.2248" fill="#1644EB"/>
<path d="M64.1629 40.5957C64.5642 45.5705 62.0449 50.6241 57.732 53.136C57.8854 52.3993 58.2891 51.8054 58.295 51.0529C61.5934 47.7654 63.003 42.701 61.8774 38.1821C60.7517 33.6632 54.7112 28.8487 50.256 27.4927C51.6728 27.9239 54.8278 28.6999 56.2046 29.3416C57.5847 29.9847 59.3918 31.3219 60.4651 32.3963C62.6909 34.6241 63.9087 37.4447 64.1629 40.5957Z" fill="#1644EB"/>
<path d="M56.2944 60.929C56.0136 60.929 55.7414 60.8106 55.5468 60.5916C54.8299 59.718 54.298 58.9215 53.7344 58.0781C53.4651 57.6741 53.19 57.2625 52.8891 56.835L52.6782 56.5369C52.3543 56.0764 51.8655 55.3806 51.5291 55.1204C51.3594 54.9876 50.8802 55.0921 50.5304 55.1702C50.4077 55.1971 50.2898 55.2224 50.1796 55.2426C49.2355 55.4204 48.232 55.5287 47.1174 55.5723C45.0951 55.6432 43.069 55.4343 41.1061 54.9536C34.9223 53.4532 30.0841 48.8522 29.0691 43.5041C28.8084 42.1389 28.8036 40.7213 29.0576 39.2933C29.7831 35.0838 32.7083 31.1034 36.6906 28.9086C38.3918 27.9737 40.2972 27.3239 42.3549 26.9755C46.2366 26.3098 50.3531 26.7493 53.9453 28.2162C57.6697 29.7171 60.4923 32.1539 62.1054 35.263C64.4257 39.704 64.0433 45.0559 61.1316 48.8953C60.546 49.664 59.8828 50.3814 59.1572 51.0322C58.2314 54.6814 57.7062 57.5366 57.2768 60.0808C57.2691 60.3898 57.0123 60.7354 56.6318 60.8705C56.5215 60.9098 56.4075 60.929 56.2944 60.929ZM55.8353 59.8086C55.8248 59.8469 55.818 59.8862 55.8161 59.9269C55.8228 59.8876 55.8286 59.8479 55.8353 59.8086ZM51.2588 53.5869C51.6565 53.5869 52.0696 53.6741 52.4319 53.9583C52.9418 54.3517 53.4632 55.094 53.883 55.6906L54.0881 55.9806C54.4015 56.4258 54.6823 56.847 54.9583 57.2606C55.3062 57.781 55.6417 58.2832 56.0097 58.7859C56.4267 56.3774 56.9471 53.7292 57.7867 50.448C57.8241 50.3033 57.9036 50.1734 58.0167 50.0752C58.7355 49.4503 59.3892 48.7535 59.9594 48.0045C62.528 44.6183 62.8577 39.8832 60.799 35.9426C59.3499 33.1483 56.7889 30.9491 53.3923 29.5805C50.0464 28.2147 46.2174 27.805 42.6022 28.427C42.6012 28.427 42.6012 28.427 42.6003 28.4275C40.7055 28.7476 38.9554 29.3433 37.4008 30.1982C33.8009 32.1822 31.1594 35.7643 30.5077 39.5468C30.2854 40.8014 30.2882 42.0387 30.5154 43.2286C31.4249 48.0198 35.8213 52.1564 41.455 53.5231C43.2875 53.9722 45.1766 54.1667 47.0628 54.1011C48.1017 54.0603 49.0343 53.9602 49.9131 53.7949C50.0119 53.7766 50.1115 53.7546 50.215 53.7321C50.5083 53.6674 50.8764 53.5869 51.2588 53.5869Z" fill="#1644EB"/>
<path d="M8.17254 46.9735C8.04411 46.9735 7.9128 46.95 7.78629 46.9011C7.37608 46.7425 7.11059 46.3586 7.11059 45.923C6.69655 42.6107 6.23075 38.8373 5.47359 34.4736C4.64262 33.6383 3.86725 32.6904 3.16664 31.6534C-0.124628 26.6786 -0.176384 20.0352 3.02958 14.7222C5.27423 11.0068 8.95846 8.21822 13.6835 6.65789C20.7894 4.27762 29.1651 5.1426 35.0202 8.86756C41.5069 12.9946 44.987 20.8331 43.2963 27.5058C43.2675 27.6318 43.2254 27.7741 43.1822 27.9164C43.0624 28.3046 42.6503 28.5241 42.2631 28.4052C41.874 28.2864 41.6554 27.8752 41.7733 27.4861C41.8069 27.3773 41.8404 27.2685 41.8663 27.1602C43.4084 21.0699 40.1957 13.9056 34.2305 10.1097C28.7358 6.6138 20.8526 5.80871 14.1484 8.05481C9.75779 9.50444 6.35055 12.073 4.28992 15.4832C1.37628 20.3122 1.41558 26.3379 4.39056 30.8354C5.07967 31.8546 5.84929 32.7834 6.67355 33.5899C6.78377 33.6977 6.85757 33.8372 6.8844 33.9891C7.6109 38.1425 8.07286 41.7577 8.47061 44.9732C9.63415 43.6956 10.6894 42.4041 11.6795 41.1778C11.8299 40.9933 11.9842 40.7686 12.1462 40.5342C12.5497 39.9501 13.0069 39.2887 13.5685 38.9082C14.4282 38.3207 15.4471 38.6111 16.1927 38.8234C16.3269 38.8618 16.4553 38.8987 16.5761 38.9279C17.7607 39.2217 18.9607 39.4263 20.1472 39.5375C22.5155 39.7704 24.903 39.6803 27.2425 39.2657C28.0083 39.1292 28.7933 38.9442 29.5753 38.7151C29.9673 38.6001 30.3747 38.8249 30.4887 39.2145C30.6028 39.605 30.3795 40.0138 29.9894 40.1279C29.1555 40.3718 28.3179 40.5697 27.5003 40.7149C25.0266 41.1543 22.5069 41.2502 20.0054 41.0029C18.7508 40.8855 17.478 40.6684 16.2263 40.3579C16.0921 40.3253 15.9435 40.2831 15.7883 40.239C15.2717 40.091 14.6851 39.9256 14.3976 40.1255C14.0612 40.3531 13.6874 40.8936 13.3577 41.3709C13.1717 41.6393 12.9935 41.8957 12.8238 42.1046C11.644 43.5662 10.3702 45.1218 8.93162 46.6414C8.7361 46.8565 8.46007 46.9735 8.17254 46.9735ZM8.57987 45.8722C8.58179 45.8928 8.58275 45.9115 8.58275 45.9226C8.58275 45.9053 8.58179 45.8885 8.57987 45.8722Z" fill="#1644EB"/>
<path d="M28.5066 33.192C28.2047 33.192 27.922 33.0056 27.8146 32.7056C26.6866 29.5792 25.3486 26.2587 24.0547 23.0474C22.9573 20.326 21.8292 17.5268 20.8209 14.8245C18.6501 18.6281 17.0897 21.5178 15.447 24.5584C14.1627 26.9348 12.8448 29.3741 11.1724 32.3653C10.9749 32.7199 10.5264 32.846 10.1708 32.6485C9.81619 32.4501 9.68967 32.0016 9.88807 31.6465C11.5557 28.6629 12.8707 26.2294 14.1512 23.8587C15.9904 20.4544 17.7271 17.2393 20.3293 12.7208C20.4721 12.4735 20.7347 12.3264 21.0327 12.3551C21.3184 12.3805 21.5628 12.5689 21.6596 12.8387C22.7876 15.9651 24.1256 19.2856 25.4195 22.4968C26.7191 25.7205 28.0629 29.0539 29.1986 32.2062C29.3366 32.5886 29.1392 33.0104 28.7558 33.1484C28.6734 33.1781 28.589 33.192 28.5066 33.192Z" fill="#1644EB"/>
<path d="M24.5808 24.7297C24.5731 24.7297 24.5654 24.7297 24.5578 24.7292L15.144 24.4408C14.7377 24.4283 14.4185 24.089 14.431 23.6826C14.4444 23.2763 14.8162 22.9475 15.19 22.9696L24.6038 23.258C25.0102 23.2705 25.3293 23.6098 25.3169 24.0162C25.3044 24.4149 24.9776 24.7297 24.5808 24.7297Z" fill="#1644EB"/>
<path d="M51.9337 37.1653H38.5664C38.16 37.1653 37.8303 36.8356 37.8303 36.4292C37.8303 36.0228 38.16 35.6931 38.5664 35.6931H51.9337C52.3401 35.6931 52.6698 36.0228 52.6698 36.4292C52.6698 36.8356 52.3401 37.1653 51.9337 37.1653Z" fill="#1644EB"/>
<path d="M41.6924 48.5683C41.4873 48.5683 41.2831 48.483 41.1375 48.3157C40.8701 48.0095 40.9026 47.5442 41.2084 47.2772C44.4671 44.4379 46.9667 40.7891 48.4359 36.7263C48.5749 36.3429 48.9985 36.1455 49.3781 36.2845C49.7605 36.4225 49.9579 36.8447 49.8199 37.2266C48.2663 41.5247 45.6229 45.3839 42.1764 48.3871C42.0365 48.5088 41.8639 48.5683 41.6924 48.5683Z" fill="#1644EB"/>
<path d="M50.2178 48.3639C50.1881 48.3639 50.1584 48.362 50.1277 48.3587C48.0671 48.1071 46.0409 46.8994 44.4221 44.9591C43.0219 43.2804 42.0884 41.319 41.1855 39.4217C41.0101 39.0547 41.1663 38.6157 41.5334 38.4408C41.9005 38.2663 42.3404 38.4226 42.5139 38.7892C43.3784 40.6035 44.2717 42.4801 45.5531 44.016C46.9313 45.6679 48.6191 46.691 50.306 46.897C50.7095 46.9464 50.997 47.3135 50.9472 47.717C50.9021 48.0903 50.5849 48.3639 50.2178 48.3639Z" fill="#1644EB"/>
<path d="M44.626 36.5796C44.2647 36.5796 43.9494 36.3142 43.8976 35.9461C43.8085 35.3078 43.8468 34.6412 44.0107 34.0187C44.1152 33.6253 44.5235 33.3919 44.9097 33.4935C45.3027 33.597 45.5384 33.9995 45.4349 34.3925C45.3199 34.8281 45.2931 35.2944 45.3563 35.741C45.4129 36.1436 45.1321 36.5159 44.7295 36.5725C44.695 36.5772 44.6605 36.5796 44.626 36.5796Z" fill="#1644EB"/>
<path d="M51.3895 54.7664C51.6497 54.7664 54.3167 58.2357 55.6177 59.9703H56.9187L58.2197 51.8391L60.8217 48.9119L62.7732 44.6837V37.8535L59.5207 32.3243L53.0157 28.7466L46.5108 27.1204L37.0786 29.3971L30.8989 35.5768L29.598 45.3342L34.8019 52.1644C37.6207 53.357 43.3234 55.7421 43.5836 55.7421C43.9088 55.7421 51.0643 54.7664 51.3895 54.7664Z" fill="#1644EB"/>
<path d="M5.47259 34.4734C6.22975 38.8372 6.69555 42.6106 7.10959 45.9229C7.10959 46.3585 7.37508 46.7424 7.78529 46.901C7.9118 46.9499 8.04311 46.9733 8.17154 46.9733C8.32087 46.9733 8.46554 46.9388 8.599 46.8784C9.05737 46.9122 9.58385 46.8568 10.5942 46.8568C12.3148 44.7812 13.8266 42.9258 15.4833 40.9176C17.1819 41.8417 20.6577 42.358 22.4121 42.3818C24.5421 42.4108 26.6717 42.0786 28.6999 41.4262C28.5871 42.7162 28.8912 44.0919 29.1934 45.3377C30.3121 49.9505 33.7704 53.5578 38.1163 55.4665C42.1428 57.2347 46.302 57.2976 50.7131 56.1677C51.4091 57.2671 52.376 58.516 52.9462 59.3622C53.6956 60.4742 54.3192 60.8274 54.4725 60.8423C55.0931 60.9023 55.6739 60.9204 56.0601 60.8788C56.2205 60.9185 56.3328 60.9765 56.6309 60.8702C57.6381 60.5125 56.9719 60.1091 58.8162 52.4122C66.111 47.0429 66.5603 34.8412 56.6376 29.5613C53.3471 27.5642 49.118 26.4592 44.6699 26.7223C44.7738 26.1757 44.7111 25.3347 44.7197 24.979C44.8417 19.9452 43.1225 15.9911 40.2063 12.4596C36.243 7.66003 30.478 5.81285 24.2662 5.43031C16.1395 4.75736 7.24729 7.73918 3.02858 14.722C-0.543196 20.6414 -0.372383 28.5981 5.47259 34.4734ZM53.3914 29.5802C62.2994 33.1695 64.2887 42.2959 59.9586 48.0041C59.3884 48.7532 58.7347 49.4499 58.0159 50.0748C57.9028 50.1731 57.8232 50.3029 57.7859 50.4477C56.9463 53.7289 56.4258 56.377 56.0089 58.7856C54.951 57.3406 53.3561 54.6717 52.4311 53.9579C52.0688 53.6738 51.6557 53.5865 51.258 53.5865C50.3377 53.5865 46.7734 54.8262 41.4541 53.5228C34.8066 51.9101 29.3277 46.1998 30.5069 39.5464C31.3693 34.5413 35.6139 29.6073 42.5995 28.4272C42.6004 28.4267 42.6004 28.4267 42.6014 28.4267C46.2166 27.8047 50.0455 28.2144 53.3914 29.5802ZM4.28892 15.483C9.91558 6.17155 25.0872 4.29299 34.2295 10.1096C40.1669 13.8877 43.3736 21.0021 41.8828 27.074C34.7168 28.4665 30.2909 33.5369 29.169 38.8222C25.1558 39.9183 20.632 39.9338 16.5751 38.9278C16.4543 38.8985 16.3259 38.8616 16.1917 38.8233C15.4461 38.611 14.4272 38.3206 13.5675 38.9081C12.4938 39.6356 12.4404 40.6131 8.46961 44.9731C8.07186 41.7575 7.60989 38.1423 6.8834 33.989C6.85657 33.837 6.78277 33.6976 6.67255 33.5898C1.24696 28.2809 0.96619 20.9901 4.28892 15.483Z" fill="#1644EB"/>
<path d="M10.1695 32.6485C10.5251 32.846 10.9737 32.7199 11.1711 32.3653C12.8436 29.3741 14.1614 26.9348 15.4457 24.5584C15.4649 24.5228 15.484 24.4876 15.5032 24.452L24.5566 24.7295C24.5643 24.73 24.5719 24.73 24.5796 24.73C24.6288 24.73 24.6723 24.7117 24.7189 24.7025C25.7982 27.3892 26.8778 30.1128 27.8133 32.7056C27.9207 33.0056 28.2034 33.192 28.5053 33.192C28.5878 33.192 28.6721 33.1781 28.7545 33.1484C29.1379 33.0104 29.3353 32.5886 29.1973 32.2062C28.0616 29.0539 26.7179 25.7205 25.4182 22.4968C24.1243 19.2856 22.7864 15.9651 21.6583 12.8387C21.5615 12.5689 21.3171 12.3805 21.0315 12.3551C20.7334 12.3264 20.4708 12.4735 20.328 12.7208C17.7258 17.2393 15.9891 20.4544 14.1499 23.8587C12.8694 26.2294 11.5545 28.6629 9.88679 31.6465C9.68839 32.0016 9.81491 32.4501 10.1695 32.6485ZM20.8197 14.8245C21.8279 17.5268 22.956 20.326 24.0534 23.0474C24.0796 23.1125 24.1062 23.1787 24.1324 23.2438L16.2866 23.0035C17.6414 20.5006 19.0206 17.9766 20.8197 14.8245Z" fill="#1644EB"/>
<path d="M38.5654 35.6931C38.159 35.6931 37.8293 36.0228 37.8293 36.4292C37.8293 36.8355 38.159 37.1652 38.5654 37.1652H48.2615C47.4359 39.3211 46.3183 41.3513 44.9508 43.2017C43.9851 41.8384 43.2322 40.2979 42.5132 38.7888C42.3397 38.4222 41.8998 38.266 41.5327 38.4404C41.1656 38.6154 41.0094 39.0543 41.1848 39.4214C41.9913 41.1162 42.8413 42.851 44.0075 44.4009C43.15 45.4272 42.2209 46.3953 41.2087 47.2772C40.6958 47.7251 41.0174 48.5682 41.6927 48.5682C41.8643 48.5682 42.0368 48.5088 42.1767 48.3871C43.1779 47.5147 44.1021 46.5627 44.9606 45.5561C46.4795 47.1441 48.2884 48.1339 50.127 48.3583C50.1576 48.3617 50.1873 48.3636 50.217 48.3636C50.5841 48.3636 50.9014 48.09 50.9464 47.7167C50.9963 47.3132 50.7087 46.9461 50.3052 46.8967C48.7556 46.7074 47.2082 45.8218 45.8977 44.3994C47.9572 41.6968 49.4896 38.4383 49.8294 37.1652H51.9326C52.339 37.1652 52.6687 36.8355 52.6687 36.4292C52.6687 36.0228 52.339 35.6931 51.9326 35.6931H45.354C45.2991 35.261 45.3235 34.8127 45.4345 34.3925C45.538 33.9995 45.3022 33.597 44.9092 33.4935C44.523 33.3919 44.1147 33.6253 44.0102 34.0187C43.8677 34.56 43.8385 35.1327 43.8871 35.6931H38.5654Z" fill="white"/>
</svg>
