<svg width="25" height="25" viewBox="0 0 25 25" fill="none" xmlns="http://www.w3.org/2000/svg">
<path d="M16.5783 7.97168L14.7367 13.4954C14.6365 13.7961 14.4676 14.0694 14.2435 14.2935C14.0193 14.5177 13.7461 14.6865 13.4454 14.7868L7.92163 16.6283L9.76321 11.1046C9.86344 10.8039 10.0323 10.5306 10.2565 10.3065C10.4806 10.0824 10.7538 9.91349 11.0546 9.81326L16.5783 7.97168Z" stroke="#00A5FF" stroke-width="2.04167" stroke-linecap="round" stroke-linejoin="round"/>
<path d="M12.25 22.5083C17.8879 22.5083 22.4583 17.9379 22.4583 12.3C22.4583 6.6621 17.8879 2.09167 12.25 2.09167C6.61205 2.09167 2.04163 6.6621 2.04163 12.3C2.04163 17.9379 6.61205 22.5083 12.25 22.5083Z" stroke="#00A5FF" stroke-width="2.04167" stroke-linecap="round" stroke-linejoin="round"/>
</svg>
