<svg width="25" height="25" viewBox="0 0 25 25" fill="none" xmlns="http://www.w3.org/2000/svg">
<path d="M4.08334 14.3418C3.89016 14.3424 3.70076 14.2883 3.53714 14.1856C3.37353 14.0829 3.24241 13.9358 3.15902 13.7616C3.07564 13.5873 3.04341 13.393 3.06607 13.2012C3.08874 13.0093 3.16538 12.8278 3.28709 12.6778L13.3933 2.26531C13.4691 2.17781 13.5725 2.11868 13.6863 2.09762C13.8001 2.07657 13.9178 2.09485 14.0199 2.14945C14.1219 2.20406 14.2024 2.29175 14.2481 2.39813C14.2938 2.50451 14.302 2.62326 14.2713 2.7349L12.3113 8.88031C12.2535 9.03499 12.234 9.20138 12.2547 9.36521C12.2753 9.52904 12.3354 9.68542 12.4298 9.82093C12.5241 9.95645 12.6499 10.067 12.7964 10.1432C12.9429 10.2194 13.1057 10.259 13.2708 10.2584H20.4167C20.6098 10.2578 20.7992 10.3119 20.9629 10.4146C21.1265 10.5173 21.2576 10.6644 21.341 10.8386C21.4244 11.0129 21.4566 11.2072 21.4339 11.3991C21.4113 11.5909 21.3346 11.7724 21.2129 11.9224L11.1067 22.3349C11.0309 22.4224 10.9276 22.4815 10.8137 22.5026C10.6999 22.5236 10.5822 22.5054 10.4802 22.4508C10.3781 22.3962 10.2976 22.3085 10.2519 22.2021C10.2062 22.0957 10.198 21.9769 10.2288 21.8653L12.1888 15.7199C12.2465 15.5652 12.266 15.3988 12.2453 15.235C12.2247 15.0712 12.1646 14.9148 12.0702 14.7793C11.9759 14.6438 11.8501 14.5332 11.7036 14.457C11.5571 14.3808 11.3943 14.3412 11.2292 14.3418H4.08334Z" stroke="#00A5FF" stroke-width="2.04167" stroke-linecap="round" stroke-linejoin="round"/>
</svg>
