<svg width="22" height="22" viewBox="0 0 22 22" fill="none" xmlns="http://www.w3.org/2000/svg">
<path d="M13.625 20.1396V16.6396C13.7467 15.5435 13.4324 14.4435 12.75 13.5771C15.375 13.5771 18 11.8271 18 8.76465C18.07 7.6709 17.7638 6.59465 17.125 5.70215C17.37 4.6959 17.37 3.6459 17.125 2.63965C17.125 2.63965 16.25 2.63965 14.5 3.95215C12.19 3.51465 9.81 3.51465 7.5 3.95215C5.75 2.63965 4.875 2.63965 4.875 2.63965C4.6125 3.6459 4.6125 4.6959 4.875 5.70215C4.23789 6.59105 3.92867 7.67334 4 8.76465C4 11.8271 6.625 13.5771 9.25 13.5771C8.90875 14.0059 8.655 14.4959 8.50625 15.0209C8.3575 15.5459 8.31375 16.0971 8.375 16.6396V20.1396" stroke="black" stroke-width="1.75" stroke-linecap="round" stroke-linejoin="round"/>
<path d="M8.375 16.6396C4.42875 18.3896 4 14.8896 2.25 14.8896" stroke="black" stroke-width="1.75" stroke-linecap="round" stroke-linejoin="round"/>
</svg>
