<svg width="22" height="22" viewBox="0 0 22 22" fill="none" xmlns="http://www.w3.org/2000/svg">
<path d="M14.5 7.88965C15.8924 7.88965 17.2277 8.44277 18.2123 9.42734C19.1969 10.4119 19.75 11.7473 19.75 13.1396V19.2646H16.25V13.1396C16.25 12.6755 16.0656 12.2304 15.7374 11.9022C15.4092 11.574 14.9641 11.3896 14.5 11.3896C14.0359 11.3896 13.5908 11.574 13.2626 11.9022C12.9344 12.2304 12.75 12.6755 12.75 13.1396V19.2646H9.25V13.1396C9.25 11.7473 9.80312 10.4119 10.7877 9.42734C11.7723 8.44277 13.1076 7.88965 14.5 7.88965Z" stroke="black" stroke-width="1.75" stroke-linecap="round" stroke-linejoin="round"/>
<path d="M5.75 8.76465H2.25V19.2646H5.75V8.76465Z" stroke="black" stroke-width="1.75" stroke-linecap="round" stroke-linejoin="round"/>
<path d="M4 6.13965C4.9665 6.13965 5.75 5.35615 5.75 4.38965C5.75 3.42315 4.9665 2.63965 4 2.63965C3.0335 2.63965 2.25 3.42315 2.25 4.38965C2.25 5.35615 3.0335 6.13965 4 6.13965Z" stroke="black" stroke-width="1.75" stroke-linecap="round" stroke-linejoin="round"/>
</svg>
