<svg width="66" height="66" viewBox="0 0 66 66" fill="none" xmlns="http://www.w3.org/2000/svg">
<path d="M55.6766 38.0089L58.569 40.6121L62.5982 38.5975C63.506 38.1436 63.9144 37.0696 63.5374 36.1273L57.4333 20.8669C57.0261 19.8489 55.8604 19.3661 54.8526 19.798L54.4991 19.9495L50.0196 21.8356C49.1648 22.1955 48.6814 23.1073 48.8633 24.0168L49.1291 25.3455C49.1609 25.5044 49.2123 25.6587 49.2822 25.8048L52.6207 32.7853L55.2812 37.5151C55.3852 37.7001 55.5188 37.8669 55.6766 38.0089Z" fill="#1644EB"/>
<path d="M60.9216 37.4683C59.9489 37.7508 58.3021 38.6998 57.2915 39.3329C53.9333 34.8028 50.4541 28.2427 49.4048 22.7025C51.0281 22.2545 54.5308 20.7572 56.1357 20.01C57.683 23.6414 58.6531 26.7227 59.7024 28.7845C59.8784 29.1307 60.3032 29.2712 60.6533 29.0938C61.0012 28.9166 61.1398 28.4909 60.9626 28.1429C60.0009 26.2544 57.7023 19.7696 57.13 18.7089C57.1269 18.7031 57.1212 18.7001 57.1179 18.6944C56.8436 18.0783 56.1321 18.0849 55.847 18.5854C54.3429 19.3157 49.8646 21.2126 48.7804 21.4041C48.2481 21.2344 47.7987 21.6873 47.8727 22.176C47.936 22.5924 48.0152 23.0152 48.1055 23.4421C41.3297 25.3931 38.5195 21.2929 34.1181 22.0868C33.2416 22.2454 32.3725 22.5324 31.5328 22.8761C26.5324 19.7292 19.446 23.7057 15.6625 21.5487C14.4727 20.8609 13.2423 20.202 12.0031 19.5349C12.1053 19.0004 12.1944 18.6157 12.1495 18.4259C12.0112 17.8354 4.77483 14.6302 4.6217 14.6407C4.61422 14.6393 4.60852 14.6344 4.60093 14.6332C4.21615 14.5748 3.8553 14.8436 3.79823 15.2297C3.41717 17.8172 1.30954 23.8468 0.670732 26.4698C0.57868 26.8491 0.811573 27.2316 1.19083 27.3241C1.57963 27.4165 1.9546 27.1755 2.04508 26.804C2.67153 24.2239 4.36609 19.4582 5.03317 16.3138C6.40038 16.9787 9.46843 18.377 10.6714 18.9709C10.0807 22.0882 8.45743 30.1663 6.43773 36.1707C5.75476 35.7641 4.89444 35.2439 4.3013 34.895C3.61086 34.49 2.87045 35.3724 3.43341 35.9785C3.5032 36.3255 3.56131 36.6909 3.65319 37.0032C4.56405 37.6742 5.78329 38.4219 6.82682 38.859C7.05414 38.7333 7.22443 38.2784 7.28145 38.025C8.18685 38.6083 9.09029 39.4213 9.99569 40.0045C9.2595 40.7827 9.35402 43.0453 10.977 44.6289C11.6714 45.3065 12.699 45.6916 13.6378 45.4468C13.2241 48.1679 15.7512 49.9844 18.0803 49.3827C18.0474 51.8803 20.5113 53.7785 22.9455 52.9497C23.2893 54.2145 24.2905 55.4036 25.5346 55.8159C26.7788 56.2284 28.2223 55.9768 29.2536 55.1677C29.4035 55.0501 29.5447 54.9515 29.6871 54.851C31.571 55.3792 33.4884 55.107 35.164 54.3424C37.2301 55.2394 39.5035 53.7407 39.805 51.8592C41.928 52.8928 44.3276 51.2225 44.5503 49.3534C45.5254 49.6233 46.6262 49.3877 47.4054 48.7424C48.1847 48.097 48.7695 46.8277 48.686 45.8194C51.478 44.2357 54.1435 42.7226 56.9992 41.1027C57.011 41.1072 57.0238 41.1071 57.0359 41.111C57.5094 41.7198 57.5761 41.7135 57.801 41.6514C58.6824 41.4351 60.5358 40.6115 61.3082 40.1349C61.5203 39.6106 61.5371 39.5288 61.6238 38.6248C62.1322 38.0849 61.5928 37.2678 60.9216 37.4683ZM33.251 52.4283C33.4003 52.5587 33.5692 52.7051 33.7538 52.8525C32.7912 53.3177 31.9123 53.3618 31.38 53.2186C30.6481 53.021 29.6311 52.3797 29.1653 51.71C29.3667 51.0695 29.6851 50.5179 29.8083 49.7352C31.2042 50.8129 32.2047 51.5157 33.251 52.4283ZM28.4371 49.1885C28.4578 49.5843 28.2972 50.0239 28.0901 50.5421C27.6409 51.6691 27.6685 51.9544 27.627 52.4568C27.6106 52.817 27.5896 53.3135 27.7853 53.7282C26.404 54.2314 24.7961 52.9555 24.2978 51.6922C25.3115 50.5231 26.2425 49.2737 27.0809 47.9714C27.0832 47.9713 27.0852 47.9725 27.0876 47.9725C27.7347 47.9343 28.403 48.5423 28.4371 49.1885ZM26.1239 46.8723C25.7515 47.4146 24.9779 48.7505 23.2323 50.7632C23.1706 50.7864 23.1048 50.7976 23.0506 50.8381C22.5738 51.1934 21.9018 51.2997 21.3389 51.1083C20.776 50.9163 20.3088 50.4225 20.1482 49.8499C20.0128 49.3678 20.0132 48.6036 20.0813 48.0538C20.5705 47.4494 20.3271 47.4469 22.8205 44.6388L23.2821 44.1173C23.3091 44.0867 23.32 44.0494 23.3407 44.0159C23.9558 43.9774 24.4486 44.0346 24.8558 44.2029C25.6801 44.5435 26.2706 45.7512 26.1192 46.7873C26.1149 46.8166 26.1245 46.8434 26.1239 46.8723ZM18.9243 47.2951C18.0432 47.6639 16.9373 47.4914 16.2309 46.8508C15.4968 46.1846 15.2196 45.0394 15.5572 44.108C17.2934 42.529 18.6537 40.4512 20.5192 41.3898C21.4254 41.8468 21.9603 42.8921 21.9377 43.2865C21.934 43.3519 21.9513 43.4119 21.9645 43.4729C21.2112 44.323 19.4595 46.2759 18.9243 47.2951ZM15.2439 42.449C14.9549 42.7433 14.6762 43.0139 14.4094 43.2386C13.5746 43.5177 12.5185 43.1398 12.0963 42.3651C11.6543 41.5543 11.9511 40.3949 12.7106 39.8733C14.5342 39.7198 15.696 41.4953 15.2439 42.449ZM34.3694 23.4781C38.0027 22.8231 41.4276 26.8045 48.4387 24.8174C49.7581 29.7433 52.586 35.0942 55.397 39.1202C52.5282 40.0719 50.2616 41.3239 47.5561 43.4362C47.067 42.3102 46.3649 41.6069 45.3628 40.6322C41.8542 37.2111 37.7312 32.3091 33.4521 29.913C33.5662 29.8995 33.6777 29.8893 33.7757 29.8919C34.1674 29.9209 34.4914 29.5969 34.5034 29.2066C34.5153 28.8163 34.2083 28.4904 33.818 28.4789C32.4244 28.4241 30.3463 29.3345 29.3401 30.395C27.6868 32.1207 26.7372 34.7258 24.6813 35.4832C24.0701 35.7092 23.2619 35.6645 22.9733 35.2024C22.7353 34.8126 22.6203 33.9786 22.7271 33.4148C23.0594 31.6069 23.8124 30.4746 24.9234 28.953C25.7353 27.8364 27.0738 26.7478 28.7906 25.8057C30.4963 24.8792 32.4299 23.8293 34.3694 23.4781ZM14.9583 22.7748C19.0165 25.0871 25.3903 21.7702 29.9088 23.619C27.6373 24.7553 25.2819 26.0573 23.7806 28.1199C22.5931 29.7469 21.7223 31.061 21.3371 33.1552C21.1879 33.9436 21.2873 35.1527 21.7702 35.9448C22.4635 37.0553 23.9863 37.2497 25.1711 36.8092C26.8857 36.1788 27.9614 34.6614 28.9024 33.2836C29.9354 31.7684 30.3646 31.15 31.559 30.5408C35.964 32.5111 40.0681 37.3488 43.5945 40.8752C44.4967 41.7774 44.7734 42.0035 45.4227 42.7172C47.452 44.946 46.403 47.2452 44.7024 47.0128C43.4703 46.8485 42.4429 45.6514 41.4814 44.7529C39.7476 43.1342 37.9365 41.3856 36.4333 39.5653C36.1856 39.2638 35.7392 39.2215 35.4382 39.4705C35.1372 39.719 35.0944 40.1645 35.3434 40.4656C36.8972 42.3476 38.7479 44.1353 40.5167 45.7867C41.22 46.4439 41.9897 47.2849 42.9372 47.8445C42.5279 49.4278 40.8765 50.282 39.3776 49.7735C38.2759 49.3984 37.7977 48.7644 33.0655 43.9608C32.7926 43.6833 32.3443 43.6796 32.0658 43.9534C31.7878 44.2273 31.7841 44.6751 32.0585 44.9531C36.5056 49.4618 37.0014 50.0674 38.0228 50.6834C37.7383 51.9753 36.8162 52.4641 36.0581 52.4172C35.4271 52.4062 34.8099 51.9123 34.1807 51.3632C32.5896 49.9748 30.7983 48.813 29.2628 47.4726C29.1835 47.4034 29.0927 47.3587 28.9981 47.3307C28.5978 46.9476 28.0924 46.6756 27.5433 46.5879C27.5824 45.1866 26.8401 43.4925 25.3961 42.8958C24.7823 42.6423 24.084 42.5554 23.2427 42.6086C22.9765 41.702 22.2221 40.665 21.1562 40.1277C19.3317 39.2067 17.826 40.0451 16.6105 41.1129C16.0909 39.453 14.4075 38.2314 12.5566 38.4745C12.5049 38.4814 12.4618 38.5063 12.4147 38.5234C12.3133 38.5223 12.2143 38.5421 12.1179 38.5865C10.5886 37.3913 9.65777 36.9178 7.97455 36.0149C9.62172 30.9462 10.9857 24.6648 11.719 20.9891C12.8053 21.5736 13.8921 22.1583 14.9583 22.7748Z" fill="#1644EB"/>
<path d="M7.11906 21.4275C7.80904 21.1592 7.98221 20.3129 7.46288 19.7936C6.83861 19.1693 5.80181 19.5734 5.76312 20.455C5.74793 20.8016 5.90074 21.1238 6.17091 21.3175C6.44838 21.517 6.80576 21.5491 7.11906 21.4275Z" fill="#1644EB"/>
<path d="M50.7621 24.1268C50.2555 25.5162 51.3998 27.1702 52.9861 26.7406C53.9476 26.4824 54.4829 25.6153 54.2877 24.6322C53.9057 22.7061 51.3618 22.4818 50.7621 24.1268ZM52.6193 25.3755C52.4508 25.4183 52.3367 25.3916 52.2354 25.2816C52.0244 25.0516 51.9423 24.4922 52.3247 24.4421C52.6346 24.4019 52.8475 24.6371 52.901 24.9079C52.9751 25.2798 52.7072 25.3516 52.6193 25.3755Z" fill="#1644EB"/>
<path d="M27.1933 18.8931C27.3916 19.2276 27.8243 19.3403 28.1621 19.1412C28.4981 18.9419 28.609 18.5083 28.4102 18.1724L26.0767 14.2316C25.8778 13.8951 25.4447 13.7847 25.1083 13.983C24.7723 14.1819 24.6609 14.6154 24.8597 14.9514L27.1933 18.8931Z" fill="#1644EB"/>
<path d="M31.4346 18.8789C31.7775 18.8789 32.079 18.6285 32.1324 18.2791L33.0953 11.9979C33.1547 11.6118 32.8895 11.2509 32.5038 11.192C32.1195 11.1312 31.7568 11.3973 31.6979 11.7834L30.735 18.0647C30.6692 18.4926 31.0001 18.8789 31.4346 18.8789Z" fill="#1644EB"/>
<path d="M36.8433 18.1398L38.8501 15.131C39.0669 14.8061 38.979 14.3674 38.654 14.1507C38.3291 13.9339 37.8904 14.0218 37.6736 14.3467L35.6669 17.3555C35.4501 17.6804 35.538 18.1191 35.863 18.3358C36.1867 18.5521 36.6264 18.4652 36.8433 18.1398Z" fill="#1644EB"/>
</svg>
