<svg width="56" height="18" viewBox="0 0 56 18" fill="none" xmlns="http://www.w3.org/2000/svg">
<mask id="mask0_2060_34" style="mask-type:luminance" maskUnits="userSpaceOnUse" x="0" y="0" width="56" height="18">
<path d="M55.9849 0.915039H0.0150146V17.5547H55.9849V0.915039Z" fill="white"/>
</mask>
<g mask="url(#mask0_2060_34)">
<path d="M49.2733 17.4239C49.1284 17.4239 48.9934 17.3851 48.8681 17.3171L47.585 16.5502C47.3919 16.4434 47.4885 16.4046 47.5464 16.3852C47.8067 16.2978 47.855 16.2784 48.1252 16.1231C48.1541 16.1037 48.1927 16.1134 48.2216 16.1328L49.2056 16.725C49.2441 16.7444 49.2924 16.7444 49.3213 16.725L53.1706 14.4826C53.209 14.4632 53.2287 14.4244 53.2287 14.3759V9.90082C53.2287 9.85231 53.209 9.81349 53.1706 9.79408L49.3213 7.56145C49.2827 7.54201 49.2345 7.54201 49.2056 7.56145L45.3564 9.79408C45.3179 9.81349 45.2986 9.862 45.2986 9.90082V14.3759C45.2986 14.4147 45.3179 14.4632 45.3564 14.4826L46.4079 15.0942C46.977 15.3854 47.334 15.0456 47.334 14.7059V10.2891C47.334 10.2309 47.3823 10.1727 47.45 10.1727H47.942C47.9998 10.1727 48.0577 10.2212 48.0577 10.2891V14.7059C48.0577 15.4728 47.6428 15.9193 46.9192 15.9193C46.6974 15.9193 46.5238 15.9193 46.0316 15.6766L45.0187 15.0942C44.768 14.9485 44.6135 14.6768 44.6135 14.3855V9.91057C44.6135 9.61931 44.768 9.34753 45.0187 9.20191L48.8681 6.95959C49.1091 6.82369 49.4372 6.82369 49.6783 6.95959L53.5276 9.20191C53.7783 9.34753 53.9326 9.61931 53.9326 9.91057V14.3855C53.9326 14.6768 53.7783 14.9485 53.5276 15.0942L49.6783 17.3365C49.5626 17.3851 49.4179 17.4239 49.2733 17.4239Z" fill="#5FA04E"/>
<path d="M50.4697 14.3469C48.7812 14.3469 48.4338 13.5703 48.4338 12.9102C48.4338 12.852 48.4821 12.7937 48.5496 12.7937H49.0512C49.1093 12.7937 49.1575 12.8325 49.1575 12.8908C49.2346 13.4052 49.4564 13.6577 50.4791 13.6577C51.2896 13.6577 51.6369 13.4732 51.6369 13.0364C51.6369 12.784 51.5401 12.5996 50.2764 12.4734C49.225 12.3666 48.5688 12.1336 48.5688 11.2891C48.5688 10.5028 49.225 10.0369 50.3247 10.0369C51.5598 10.0369 52.1675 10.464 52.2446 11.3959C52.2446 11.425 52.235 11.4541 52.2159 11.4833C52.1962 11.5027 52.1675 11.5221 52.1381 11.5221H51.6268C51.5791 11.5221 51.5306 11.4833 51.521 11.4347C51.4051 10.9008 51.1059 10.7261 50.315 10.7261C49.4275 10.7261 49.3214 11.0367 49.3214 11.2697C49.3214 11.5512 49.4467 11.6386 50.6431 11.7939C51.8296 11.9492 52.3893 12.1724 52.3893 13.0073C52.3893 13.8615 51.6849 14.3469 50.4697 14.3469Z" fill="#5FA04E"/>
<path d="M56.0268 9.64854C56.0268 10.0563 55.6889 10.396 55.2835 10.396C54.8785 10.396 54.5408 10.0659 54.5408 9.64854C54.5408 9.22145 54.8881 8.90112 55.2835 8.90112C55.6792 8.90112 56.0268 9.23114 56.0268 9.64854ZM54.6567 9.64854C54.6567 9.99803 54.9365 10.2795 55.2738 10.2795C55.6214 10.2795 55.9012 9.9883 55.9012 9.64854C55.9012 9.2991 55.6214 9.02732 55.2738 9.02732C54.9462 9.02732 54.6567 9.2991 54.6567 9.64854ZM55.004 9.23114H55.2935C55.39 9.23114 55.583 9.23114 55.583 9.45441C55.583 9.60972 55.4862 9.63886 55.4281 9.65827C55.5442 9.66795 55.5537 9.74566 55.5633 9.8524C55.573 9.92036 55.583 10.0369 55.6021 10.0757H55.4281C55.4281 10.0369 55.3994 9.82331 55.3994 9.81358C55.39 9.76507 55.3707 9.74566 55.3128 9.74566H55.168V10.0854H55.004V9.23114ZM55.1583 9.60003H55.2835C55.39 9.60003 55.409 9.52239 55.409 9.48355C55.409 9.36708 55.3319 9.36708 55.2835 9.36708H55.1489V9.60003H55.1583Z" fill="#5FA04E"/>
<path fill-rule="evenodd" clip-rule="evenodd" d="M9.17011 9.70969C9.17011 9.53497 9.07366 9.37 8.91932 9.2826L4.83857 6.90434C4.77105 6.86552 4.69387 6.84611 4.61668 6.83643C4.60704 6.83643 4.57811 6.83643 4.57811 6.83643C4.50093 6.83643 4.42374 6.86552 4.35622 6.90434L0.265839 9.27288C0.111486 9.36027 0.0150146 9.52531 0.0150146 9.70969L0.0246618 16.0776C0.0246618 16.165 0.0728976 16.2523 0.150075 16.2911C0.227252 16.3397 0.323723 16.3397 0.391254 16.2911L2.82233 14.8933C2.97668 14.806 3.07315 14.641 3.07315 14.4662V11.4861C3.07315 11.3114 3.16962 11.1464 3.32399 11.059L4.35622 10.4572C4.43341 10.4086 4.52021 10.3892 4.60704 10.3892C4.69387 10.3892 4.78069 10.4086 4.84823 10.4572L5.88045 11.059C6.03479 11.1464 6.13131 11.3114 6.13131 11.4861V14.4662C6.13131 14.641 6.22778 14.806 6.38212 14.8933L8.79392 16.2911C8.87106 16.3397 8.96753 16.3397 9.04472 16.2911C9.12192 16.2523 9.17011 16.165 9.17011 16.0776V9.70969Z" fill="#878787"/>
<path fill-rule="evenodd" clip-rule="evenodd" d="M28.8311 0.944161C28.7538 0.905332 28.6573 0.905332 28.5898 0.944161C28.5127 0.992696 28.4645 1.07035 28.4645 1.15772V7.46735C28.4645 7.52558 28.4356 7.58382 28.3775 7.6227C28.3196 7.6518 28.2618 7.6518 28.2039 7.6227L27.1814 7.03053C27.0271 6.9432 26.8437 6.9432 26.6894 7.03053L22.599 9.40879C22.4447 9.49619 22.3483 9.66116 22.3483 9.83588V14.5827C22.3483 14.7575 22.4447 14.9224 22.599 15.0098L26.6894 17.3881C26.8437 17.4754 27.0271 17.4754 27.1814 17.3881L31.2718 15.0098C31.4261 14.9224 31.5225 14.7575 31.5225 14.5827V2.74969C31.5225 2.56525 31.4261 2.40023 31.2718 2.31287L28.8311 0.944161ZM28.4549 13.0199C28.4549 13.0684 28.4356 13.1072 28.397 13.1266L26.998 13.9421C26.9594 13.9615 26.9112 13.9615 26.8726 13.9421L25.4738 13.1266C25.4352 13.1072 25.4159 13.0587 25.4159 13.0199V11.3891C25.4159 11.3405 25.4352 11.3017 25.4738 11.2823L26.8726 10.4669C26.9112 10.4475 26.9594 10.4475 26.998 10.4669L28.397 11.2823C28.4356 11.3017 28.4549 11.3502 28.4549 11.3891V13.0199Z" fill="#878787"/>
<path fill-rule="evenodd" clip-rule="evenodd" d="M42.4427 11.3502C42.5972 11.2628 42.684 11.0978 42.684 10.923V9.76788C42.684 9.59318 42.5875 9.42814 42.4427 9.34081L38.3812 6.97228C38.2269 6.88489 38.0437 6.88489 37.8892 6.97228L33.799 9.35048C33.6445 9.43787 33.5481 9.60291 33.5481 9.77763V14.5244C33.5481 14.6991 33.6445 14.8642 33.799 14.9515L37.8603 17.2812C38.0148 17.3686 38.198 17.3686 38.3426 17.2812L40.8028 15.9029C40.8799 15.864 40.9282 15.7766 40.9282 15.6892C40.9282 15.6019 40.8799 15.5145 40.8028 15.4757L36.6931 13.0974C36.616 13.0489 36.5677 12.9713 36.5677 12.8839V11.3987C36.5677 11.3114 36.616 11.224 36.6931 11.1851L37.9762 10.4474C38.0534 10.3989 38.1498 10.3989 38.2269 10.4474L39.51 11.1851C39.5872 11.2337 39.6354 11.3114 39.6354 11.3987V12.5636C39.6354 12.6509 39.6836 12.7383 39.761 12.7771C39.8381 12.8257 39.9345 12.8257 40.0117 12.7771L42.4427 11.3502Z" fill="#878787"/>
<path fill-rule="evenodd" clip-rule="evenodd" d="M38.0727 11.1271C38.1016 11.1077 38.1404 11.1077 38.1693 11.1271L38.9506 11.5834C38.9795 11.6028 38.9988 11.6319 38.9988 11.6707V12.5832C38.9988 12.622 38.9795 12.6512 38.9506 12.6706L38.1693 13.1268C38.1404 13.1462 38.1016 13.1462 38.0727 13.1268L37.2914 12.6706C37.2625 12.6512 37.2432 12.622 37.2432 12.5832V11.6707C37.2432 11.6319 37.2625 11.6028 37.2914 11.5834L38.0727 11.1271Z" fill="#5FA04E"/>
<path d="M16.0096 6.99177C15.8552 6.90444 15.6719 6.90444 15.5176 6.99177L11.4561 9.35064C11.3018 9.43801 11.215 9.603 11.215 9.77777V14.5051C11.215 14.6799 11.3114 14.8448 11.4561 14.9322L15.5176 17.2911C15.6719 17.3784 15.8552 17.3784 16.0096 17.2911L20.071 14.9322C20.2254 14.8448 20.3122 14.6799 20.3122 14.5051V9.77777C20.3122 9.603 20.2157 9.43801 20.071 9.35064L16.0096 6.99177Z" fill="url(#paint0_linear_2060_34)"/>
<path d="M20.0807 9.35049L16 6.99162C15.9614 6.97221 15.9132 6.9528 15.8746 6.94312L11.3019 14.8156C11.3405 14.8641 11.3887 14.903 11.4369 14.9321L15.5177 17.2909C15.6334 17.3589 15.7685 17.3783 15.8939 17.3394L20.1869 9.43786C20.1579 9.39904 20.1193 9.3699 20.0807 9.35049Z" fill="url(#paint1_linear_2060_34)"/>
<path d="M20.0809 14.9321C20.1966 14.8641 20.2835 14.7477 20.322 14.6214L15.8554 6.9334C15.7397 6.91399 15.6142 6.92365 15.5081 6.99163L11.4563 9.34075L15.8264 17.3589C15.8843 17.3491 15.9519 17.3297 16.0098 17.3006L20.0809 14.9321Z" fill="url(#paint2_linear_2060_34)"/>
</g>
<defs>
<linearGradient id="paint0_linear_2060_34" x1="17.4177" y1="8.74857" x2="13.7086" y2="16.2682" gradientUnits="userSpaceOnUse">
<stop stop-color="#3F873F"/>
<stop offset="0.3296" stop-color="#3F8B3D"/>
<stop offset="0.6367" stop-color="#3E9638"/>
<stop offset="0.9341" stop-color="#3DA92E"/>
<stop offset="1" stop-color="#3DAE2B"/>
</linearGradient>
<linearGradient id="paint1_linear_2060_34" x1="15.1464" y1="12.6933" x2="25.4953" y2="5.09426" gradientUnits="userSpaceOnUse">
<stop offset="0.1376" stop-color="#3F873F"/>
<stop offset="0.4016" stop-color="#52A044"/>
<stop offset="0.7129" stop-color="#64B749"/>
<stop offset="0.9081" stop-color="#6ABF4B"/>
</linearGradient>
<linearGradient id="paint2_linear_2060_34" x1="11.0662" y1="12.1398" x2="20.4642" y2="12.1398" gradientUnits="userSpaceOnUse">
<stop offset="0.0919165" stop-color="#6ABF4B"/>
<stop offset="0.2871" stop-color="#64B749"/>
<stop offset="0.5984" stop-color="#52A044"/>
<stop offset="0.8624" stop-color="#3F873F"/>
</linearGradient>
</defs>
</svg>
