<svg width="29" height="28" viewBox="0 0 29 28" fill="none" xmlns="http://www.w3.org/2000/svg">
<path d="M19.1667 24.5V22.1667C19.1667 20.929 18.675 19.742 17.7999 18.8668C16.9247 17.9917 15.7377 17.5 14.5 17.5H7.50004C6.26236 17.5 5.07538 17.9917 4.20021 18.8668C3.32504 19.742 2.83337 20.929 2.83337 22.1667V24.5" stroke="#00A5FF" stroke-width="2.33333" stroke-linecap="round" stroke-linejoin="round"/>
<path d="M19.1666 3.64929C20.1673 3.90872 21.0536 4.4931 21.6863 5.3107C22.3189 6.1283 22.6622 7.13283 22.6622 8.16663C22.6622 9.20042 22.3189 10.205 21.6863 11.0226C21.0536 11.8402 20.1673 12.4245 19.1666 12.684" stroke="#00A5FF" stroke-width="2.33333" stroke-linecap="round" stroke-linejoin="round"/>
<path d="M26.1666 24.4999V22.1666C26.1659 21.1326 25.8217 20.1282 25.1882 19.311C24.5547 18.4938 23.6678 17.9101 22.6666 17.6516" stroke="#00A5FF" stroke-width="2.33333" stroke-linecap="round" stroke-linejoin="round"/>
<path d="M11 12.8333C13.5774 12.8333 15.6667 10.744 15.6667 8.16667C15.6667 5.58934 13.5774 3.5 11 3.5C8.42271 3.5 6.33337 5.58934 6.33337 8.16667C6.33337 10.744 8.42271 12.8333 11 12.8333Z" stroke="#00A5FF" stroke-width="2.33333" stroke-linecap="round" stroke-linejoin="round"/>
</svg>
